# WaveFront *.obj file (generated by Autodesk ATF)

mtllib Abdeckstopfen.mtl

g Volumenkörper1

v -14.976641 -0.836806 2.000000
v -14.976641 0.836806 2.000000
v -14.790200 -2.500000 2.000000
v -14.790200 -2.500000 10.000000
v -14.790200 2.500000 2.000000
v -14.790200 2.500000 10.000000
v -14.672214 -3.118675 0.000000
v -14.672214 3.118675 0.000000
v -12.757351 -2.500000 2.000000
v -12.757351 -2.500000 10.000000
v -12.757351 2.500000 2.000000
v -12.757351 2.500000 10.000000
v -12.551748 -8.213015 10.000000
v -12.551748 8.213015 10.000000
v -12.135255 -8.816779 0.000000
v -12.135255 8.816779 0.000000
v -10.815928 -7.212191 2.000000
v -10.815928 -7.212191 10.000000
v -10.815928 7.212191 2.000000
v -10.815928 7.212191 10.000000
v -8.213015 -12.551748 10.000000
v -8.213015 12.551748 10.000000
v -7.500000 -12.990381 0.000000
v -7.500000 12.990381 0.000000
v -7.212191 -10.815928 2.000000
v -7.212191 -10.815928 10.000000
v -7.212191 10.815928 2.000000
v -7.212191 10.815928 10.000000
v -2.500000 -14.790200 2.000000
v -2.500000 -14.790200 10.000000
v -2.500000 -12.757351 2.000000
v -2.500000 -12.757351 10.000000
v -2.500000 12.757351 2.000000
v -2.500000 12.757351 10.000000
v -2.500000 14.790200 2.000000
v -2.500000 14.790200 10.000000
v -1.567927 -14.917828 0.000000
v -1.567927 14.917828 0.000000
v -0.836806 -14.976641 2.000000
v -0.836806 14.976641 2.000000
v 0.836806 -14.976641 2.000000
v 0.836806 14.976641 2.000000
v 2.500000 -14.790200 2.000000
v 2.500000 -14.790200 10.000000
v 2.500000 -12.757351 2.000000
v 2.500000 -12.757351 10.000000
v 2.500000 12.757351 2.000000
v 2.500000 12.757351 10.000000
v 2.500000 14.790200 2.000000
v 2.500000 14.790200 10.000000
v 4.635255 -14.265847 0.000000
v 4.635255 14.265847 0.000000
v 7.212191 -10.815928 2.000000
v 7.212191 -10.815928 10.000000
v 7.212191 10.815928 2.000000
v 7.212191 10.815928 10.000000
v 8.213015 -12.551748 10.000000
v 8.213015 12.551748 10.000000
v 10.036960 -11.147172 0.000000
v 10.036960 11.147172 0.000000
v 10.815928 -7.212191 2.000000
v 10.815928 -7.212191 10.000000
v 10.815928 7.212191 2.000000
v 10.815928 7.212191 10.000000
v 12.551748 -8.213015 10.000000
v 12.551748 8.213015 10.000000
v 12.757351 -2.500000 2.000000
v 12.757351 -2.500000 10.000000
v 12.757351 2.500000 2.000000
v 12.757351 2.500000 10.000000
v 13.703182 -6.101050 0.000000
v 13.703182 6.101050 0.000000
v 14.790200 -2.500000 2.000000
v 14.790200 -2.500000 10.000000
v 14.790200 2.500000 2.000000
v 14.790200 2.500000 10.000000
v 14.976641 -0.836806 2.000000
v 14.976641 0.836806 2.000000
v 15.000000 0.000000 0.000000
vt -1.229020 0.800000 0.000000
vt -1.229020 0.000000 0.000000
vt -1.025735 0.000000 0.000000
vt -1.025735 0.800000 0.000000
vt -1.229020 0.800000 0.000000
vt -1.229020 0.000000 0.000000
vt -1.025735 0.000000 0.000000
vt -1.025735 0.800000 0.000000
vt -1.229020 0.800000 0.000000
vt -1.229020 0.000000 0.000000
vt -1.025735 0.000000 0.000000
vt -1.025735 0.800000 0.000000
vt -0.224265 0.800000 0.000000
vt -0.224265 0.000000 0.000000
vt -0.020980 0.000000 0.000000
vt -0.020980 0.800000 0.000000
vt -1.025735 0.000000 0.000000
vt -1.025735 0.800000 0.000000
vt -1.229020 0.800000 0.000000
vt -1.229020 0.000000 0.000000
vt -0.020980 0.000000 0.000000
vt -0.020980 0.800000 0.000000
vt -0.224265 0.800000 0.000000
vt -0.224265 0.000000 0.000000
vt -0.020980 0.000000 0.000000
vt -0.020980 0.800000 0.000000
vt -0.224265 0.800000 0.000000
vt -0.224265 0.000000 0.000000
vt -0.020980 0.000000 0.000000
vt -0.020980 0.800000 0.000000
vt -0.224265 0.800000 0.000000
vt -0.224265 0.000000 0.000000
vt -0.250000 1.275735 0.000000
vt -0.721219 1.081593 0.000000
vt -1.081593 0.721219 0.000000
vt -1.275735 0.250000 0.000000
vt -1.479020 0.250000 0.000000
vt -1.497664 0.083681 0.000000
vt -1.497664 -0.083681 0.000000
vt -1.479020 -0.250000 0.000000
vt -1.275735 -0.250000 0.000000
vt -1.081593 -0.721219 0.000000
vt -0.721219 -1.081593 0.000000
vt -0.250000 -1.275735 0.000000
vt -0.250000 -1.479020 0.000000
vt -0.083681 -1.497664 0.000000
vt 0.083681 -1.497664 0.000000
vt 0.250000 -1.479020 0.000000
vt 0.250000 -1.275735 0.000000
vt 0.721219 -1.081593 0.000000
vt 1.081593 -0.721219 0.000000
vt 1.275735 -0.250000 0.000000
vt 1.479020 -0.250000 0.000000
vt 1.497664 -0.083681 0.000000
vt 1.497664 0.083681 0.000000
vt 1.479020 0.250000 0.000000
vt 1.275735 0.250000 0.000000
vt 1.081593 0.721219 0.000000
vt 0.721219 1.081593 0.000000
vt 0.250000 1.275735 0.000000
vt 0.250000 1.479020 0.000000
vt 0.083681 1.497664 0.000000
vt -0.083681 1.497664 0.000000
vt -0.250000 1.479020 0.000000
vt 0.000000 -3.832503 0.000000
vt 0.800000 -3.832503 0.000000
vt 0.800000 -3.319536 0.000000
vt 0.800000 -2.806569 0.000000
vt 0.800000 -2.293602 0.000000
vt 0.000000 -2.293602 0.000000
vt 0.000000 -2.806569 0.000000
vt 0.000000 -3.319536 0.000000
vt 0.800000 -0.251567 0.000000
vt 0.000000 -0.251567 0.000000
vt 0.000000 -0.764534 0.000000
vt 0.000000 -1.277501 0.000000
vt 0.000000 -1.790468 0.000000
vt 0.800000 -1.790468 0.000000
vt 0.800000 -1.277501 0.000000
vt 0.800000 -0.764534 0.000000
vt 0.800000 1.790468 0.000000
vt 0.000000 1.790468 0.000000
vt 0.000000 1.277501 0.000000
vt 0.000000 0.764534 0.000000
vt 0.000000 0.251567 0.000000
vt 0.800000 0.251567 0.000000
vt 0.800000 0.764534 0.000000
vt 0.800000 1.277501 0.000000
vt 0.000000 2.293602 0.000000
vt 0.800000 2.293602 0.000000
vt 0.800000 2.806569 0.000000
vt 0.800000 3.319536 0.000000
vt 0.800000 3.832503 0.000000
vt 0.000000 3.832503 0.000000
vt 0.000000 3.319536 0.000000
vt 0.000000 2.806569 0.000000
vt 1.479020 -0.250000 0.000000
vt 1.275735 -0.250000 0.000000
vt 1.081593 -0.721219 0.000000
vt 0.721219 -1.081593 0.000000
vt 0.250000 -1.275735 0.000000
vt 0.250000 -1.479020 0.000000
vt 0.821302 -1.255175 0.000000
vt 1.255175 -0.821302 0.000000
vt -1.275735 -0.250000 0.000000
vt -1.479020 -0.250000 0.000000
vt -1.255175 -0.821302 0.000000
vt -0.821302 -1.255175 0.000000
vt -0.250000 -1.479020 0.000000
vt -0.250000 -1.275735 0.000000
vt -0.721219 -1.081593 0.000000
vt -1.081593 -0.721219 0.000000
vt -0.250000 1.275735 0.000000
vt -0.250000 1.479020 0.000000
vt -0.821302 1.255175 0.000000
vt -1.255175 0.821302 0.000000
vt -1.479020 0.250000 0.000000
vt -1.275735 0.250000 0.000000
vt -1.081593 0.721219 0.000000
vt -0.721219 1.081593 0.000000
vt 0.250000 1.479020 0.000000
vt 0.250000 1.275735 0.000000
vt 0.721219 1.081593 0.000000
vt 1.081593 0.721219 0.000000
vt 1.275735 0.250000 0.000000
vt 1.479020 0.250000 0.000000
vt 1.255175 0.821302 0.000000
vt 0.821302 1.255175 0.000000
vt -0.200000 -2.607367 0.000000
vt -1.000000 -2.607367 0.000000
vt -1.000000 -3.225317 0.000000
vt -1.000000 -3.843267 0.000000
vt -1.000000 -4.461217 0.000000
vt -0.200000 -4.461217 0.000000
vt -0.200000 4.796113 0.000000
vt -0.200000 4.628665 0.000000
vt -0.200000 4.461217 0.000000
vt -1.000000 4.461217 0.000000
vt -1.000000 3.843267 0.000000
vt -1.000000 3.225317 0.000000
vt -1.000000 2.607367 0.000000
vt -0.200000 2.607367 0.000000
vt -0.200000 2.439919 0.000000
vt -0.200000 2.272470 0.000000
vt -0.200000 2.105022 0.000000
vt -1.000000 2.105022 0.000000
vt -1.000000 1.487072 0.000000
vt -1.000000 0.869122 0.000000
vt -1.000000 0.251172 0.000000
vt -0.200000 0.251172 0.000000
vt -0.200000 0.083724 0.000000
vt -0.200000 -0.083724 0.000000
vt -0.200000 -0.251172 0.000000
vt -1.000000 -0.251172 0.000000
vt -1.000000 -0.869122 0.000000
vt -1.000000 -1.487072 0.000000
vt -1.000000 -2.105022 0.000000
vt -0.200000 -2.105022 0.000000
vt -0.200000 -2.272470 0.000000
vt -0.200000 -2.439919 0.000000
vt -0.000000 -4.712389 0.000000
vt -0.000000 -4.084071 0.000000
vt -0.000000 -3.455752 0.000000
vt -0.000000 -2.827434 0.000000
vt -0.000000 -2.199115 0.000000
vt -0.000000 -1.570796 0.000000
vt -0.000000 -0.942478 0.000000
vt -0.000000 -0.314159 0.000000
vt -0.000000 0.314159 0.000000
vt -0.000000 0.942478 0.000000
vt -0.000000 1.570796 0.000000
vt -0.000000 2.199115 0.000000
vt -0.000000 2.827434 0.000000
vt -0.000000 3.455752 0.000000
vt -0.000000 4.084071 0.000000
vt -0.200000 -4.628665 0.000000
vt -0.000000 4.712389 0.000000
vt -0.000000 4.712389 0.000000
vt -0.000000 4.712389 0.000000
vt -1.500000 0.000000 0.000000
vt -1.370318 -0.610105 0.000000
vt -1.003696 -1.114717 0.000000
vt -0.463526 -1.426585 0.000000
vt 0.156793 -1.491783 0.000000
vt 0.750000 -1.299038 0.000000
vt 1.213526 -0.881678 0.000000
vt 1.467221 -0.311868 0.000000
vt 1.467221 0.311868 0.000000
vt 1.213526 0.881678 0.000000
vt 0.750000 1.299038 0.000000
vt 0.156793 1.491783 0.000000
vt -0.463526 1.426585 0.000000
vt -1.003696 1.114717 0.000000
vt -1.370318 0.610105 0.000000
vn -0.100000 0.000000 0.000000
vn -0.100000 0.000000 0.000000
vn -0.100000 0.000000 0.000000
vn -0.100000 0.000000 0.000000
vn 0.000000 -0.100000 0.000000
vn 0.000000 -0.100000 0.000000
vn 0.000000 -0.100000 0.000000
vn 0.000000 -0.100000 0.000000
vn 0.000000 0.100000 0.000000
vn 0.000000 0.100000 0.000000
vn 0.000000 0.100000 0.000000
vn 0.000000 0.100000 0.000000
vn -0.100000 0.000000 0.000000
vn -0.100000 0.000000 0.000000
vn -0.100000 0.000000 0.000000
vn -0.100000 0.000000 0.000000
vn 0.100000 0.000000 0.000000
vn 0.100000 0.000000 0.000000
vn 0.100000 0.000000 0.000000
vn 0.100000 0.000000 0.000000
vn 0.000000 0.100000 0.000000
vn 0.000000 0.100000 0.000000
vn 0.000000 0.100000 0.000000
vn 0.000000 0.100000 0.000000
vn 0.100000 0.000000 0.000000
vn 0.100000 0.000000 0.000000
vn 0.100000 0.000000 0.000000
vn 0.100000 0.000000 0.000000
vn 0.000000 -0.100000 0.000000
vn 0.000000 -0.100000 0.000000
vn 0.000000 -0.100000 0.000000
vn 0.000000 -0.100000 0.000000
vn 0.000000 0.000000 0.100000
vn 0.000000 0.000000 0.100000
vn 0.000000 0.000000 0.100000
vn 0.000000 0.000000 0.100000
vn 0.000000 0.000000 0.100000
vn 0.000000 0.000000 0.100000
vn 0.000000 0.000000 0.100000
vn 0.000000 0.000000 0.100000
vn 0.000000 0.000000 0.100000
vn 0.000000 0.000000 0.100000
vn 0.000000 0.000000 0.100000
vn 0.000000 0.000000 0.100000
vn 0.000000 0.000000 0.100000
vn 0.000000 0.000000 0.100000
vn 0.000000 0.000000 0.100000
vn 0.000000 0.000000 0.100000
vn 0.000000 0.000000 0.100000
vn 0.000000 0.000000 0.100000
vn 0.000000 0.000000 0.100000
vn 0.000000 0.000000 0.100000
vn 0.000000 0.000000 0.100000
vn 0.000000 0.000000 0.100000
vn 0.000000 0.000000 0.100000
vn 0.000000 0.000000 0.100000
vn 0.000000 0.000000 0.100000
vn 0.000000 0.000000 0.100000
vn 0.000000 0.000000 0.100000
vn 0.000000 0.000000 0.100000
vn 0.000000 0.000000 0.100000
vn 0.000000 0.000000 0.100000
vn 0.000000 0.000000 0.100000
vn 0.000000 0.000000 0.100000
vn -0.098133 0.019231 0.000000
vn -0.098133 0.019231 0.000000
vn -0.083199 0.055478 0.000000
vn -0.055478 0.083199 0.000000
vn -0.019231 0.098133 0.000000
vn -0.019231 0.098133 0.000000
vn -0.055478 0.083199 0.000000
vn -0.083199 0.055478 0.000000
vn 0.098133 0.019231 0.000000
vn 0.098133 0.019231 0.000000
vn 0.083199 0.055478 0.000000
vn 0.055478 0.083199 0.000000
vn 0.019231 0.098133 0.000000
vn 0.019231 0.098133 0.000000
vn 0.055478 0.083199 0.000000
vn 0.083199 0.055478 0.000000
vn 0.019231 -0.098133 0.000000
vn 0.019231 -0.098133 0.000000
vn 0.055478 -0.083199 0.000000
vn 0.083199 -0.055478 0.000000
vn 0.098133 -0.019231 0.000000
vn 0.098133 -0.019231 0.000000
vn 0.083199 -0.055478 0.000000
vn 0.055478 -0.083199 0.000000
vn -0.019231 -0.098133 0.000000
vn -0.019231 -0.098133 0.000000
vn -0.055478 -0.083199 0.000000
vn -0.083199 -0.055478 0.000000
vn -0.098133 -0.019231 0.000000
vn -0.098133 -0.019231 0.000000
vn -0.083199 -0.055478 0.000000
vn -0.055478 -0.083199 0.000000
vn 0.000000 0.000000 0.100000
vn 0.000000 0.000000 0.100000
vn 0.000000 0.000000 0.100000
vn 0.000000 0.000000 0.100000
vn 0.000000 0.000000 0.100000
vn 0.000000 0.000000 0.100000
vn 0.000000 0.000000 0.100000
vn 0.000000 0.000000 0.100000
vn 0.000000 0.000000 0.100000
vn 0.000000 0.000000 0.100000
vn 0.000000 0.000000 0.100000
vn 0.000000 0.000000 0.100000
vn 0.000000 0.000000 0.100000
vn 0.000000 0.000000 0.100000
vn 0.000000 0.000000 0.100000
vn 0.000000 0.000000 0.100000
vn 0.000000 0.000000 0.100000
vn 0.000000 0.000000 0.100000
vn 0.000000 0.000000 0.100000
vn 0.000000 0.000000 0.100000
vn 0.000000 0.000000 0.100000
vn 0.000000 0.000000 0.100000
vn 0.000000 0.000000 0.100000
vn 0.000000 0.000000 0.100000
vn 0.000000 0.000000 0.100000
vn 0.000000 0.000000 0.100000
vn 0.000000 0.000000 0.100000
vn 0.000000 0.000000 0.100000
vn 0.000000 0.000000 0.100000
vn 0.000000 0.000000 0.100000
vn 0.000000 0.000000 0.100000
vn 0.000000 0.000000 0.100000
vn 0.016667 0.098601 0.000000
vn 0.016667 0.098601 0.000000
vn 0.054753 0.083678 0.000000
vn 0.083678 0.054753 0.000000
vn 0.098601 0.016667 0.000000
vn 0.098601 0.016667 0.000000
vn 0.099844 0.005579 0.000000
vn 0.099844 -0.005579 0.000000
vn 0.098601 -0.016667 0.000000
vn 0.098601 -0.016667 0.000000
vn 0.083678 -0.054753 0.000000
vn 0.054753 -0.083678 0.000000
vn 0.016667 -0.098601 0.000000
vn 0.016667 -0.098601 0.000000
vn 0.005579 -0.099844 0.000000
vn -0.005579 -0.099844 0.000000
vn -0.016667 -0.098601 0.000000
vn -0.016667 -0.098601 0.000000
vn -0.054753 -0.083678 0.000000
vn -0.083678 -0.054753 0.000000
vn -0.098601 -0.016667 0.000000
vn -0.098601 -0.016667 0.000000
vn -0.099844 -0.005579 0.000000
vn -0.099844 0.005579 0.000000
vn -0.098601 0.016667 0.000000
vn -0.098601 0.016667 0.000000
vn -0.083678 0.054753 0.000000
vn -0.054753 0.083678 0.000000
vn -0.016667 0.098601 0.000000
vn -0.016667 0.098601 0.000000
vn -0.005579 0.099844 0.000000
vn 0.005579 0.099844 0.000000
vn 0.100000 0.000000 0.000000
vn 0.091355 0.040674 0.000000
vn 0.066913 0.074314 0.000000
vn 0.030902 0.095106 0.000000
vn -0.010453 0.099452 0.000000
vn -0.050000 0.086603 0.000000
vn -0.080902 0.058779 0.000000
vn -0.097815 0.020791 0.000000
vn -0.097815 -0.020791 0.000000
vn -0.080902 -0.058779 0.000000
vn -0.050000 -0.086603 0.000000
vn -0.010453 -0.099452 0.000000
vn 0.030902 -0.095106 0.000000
vn 0.066913 -0.074314 0.000000
vn 0.091355 -0.040674 0.000000
vn 0.099844 0.005579 0.000000
vn 0.100000 0.000000 0.000000
vn 0.100000 0.000000 0.000000
vn 0.100000 0.000000 0.000000
vn 0.000000 0.000000 -0.100000
vn 0.000000 0.000000 -0.100000
vn 0.000000 0.000000 -0.100000
vn 0.000000 0.000000 -0.100000
vn 0.000000 0.000000 -0.100000
vn 0.000000 0.000000 -0.100000
vn 0.000000 0.000000 -0.100000
vn 0.000000 0.000000 -0.100000
vn 0.000000 0.000000 -0.100000
vn 0.000000 0.000000 -0.100000
vn 0.000000 0.000000 -0.100000
vn 0.000000 0.000000 -0.100000
vn 0.000000 0.000000 -0.100000
vn 0.000000 0.000000 -0.100000
vn 0.000000 0.000000 -0.100000
usemtl 191,191,191
f 49/2/2 47/3/3 50/1/1
f 50/1/1 47/3/3 48/4/4
f 5/6/6 11/7/7 6/5/5
f 6/5/5 11/7/7 12/8/8
f 73/10/10 67/11/11 74/9/9
f 74/9/9 67/11/11 68/12/12
f 45/14/14 43/15/15 46/13/13
f 46/13/13 43/15/15 44/16/16
f 32/18/18 30/19/19 31/17/17
f 31/17/17 30/19/19 29/20/20
f 4/22/22 10/23/23 3/21/21
f 3/21/21 10/23/23 9/24/24
f 36/26/26 34/27/27 35/25/25
f 35/25/25 34/27/27 33/28/28
f 76/30/30 70/31/31 75/29/29
f 75/29/29 70/31/31 69/32/32
f 27/34/34 55/59/59 33/33/33
f 33/33/33 55/59/59 47/60/60
f 33/33/33 47/60/60 40/63/63
f 40/63/63 47/60/60 42/62/62
f 42/62/62 47/60/60 49/61/61
f 55/59/59 27/34/34 63/58/58
f 63/58/58 27/34/34 19/35/35
f 63/58/58 19/35/35 69/57/57
f 69/57/57 19/35/35 11/36/36
f 69/57/57 11/36/36 67/52/52
f 67/52/52 11/36/36 9/41/41
f 67/52/52 9/41/41 61/51/51
f 61/51/51 9/41/41 17/42/42
f 61/51/51 17/42/42 53/50/50
f 53/50/50 17/42/42 25/43/43
f 53/50/50 25/43/43 45/49/49
f 45/49/49 25/43/43 31/44/44
f 45/49/49 31/44/44 41/47/47
f 41/47/47 31/44/44 39/46/46
f 39/46/46 31/44/44 29/45/45
f 5/37/37 2/38/38 11/36/36
f 11/36/36 2/38/38 1/39/39
f 11/36/36 1/39/39 9/41/41
f 9/41/41 1/39/39 3/40/40
f 41/47/47 43/48/48 45/49/49
f 73/53/53 77/54/54 67/52/52
f 67/52/52 77/54/54 69/57/57
f 77/54/54 78/55/55 69/57/57
f 69/57/57 78/55/55 75/56/56
f 40/63/63 35/64/64 33/33/33
f 67/66/66 61/67/67 68/65/65
f 68/65/65 61/67/67 62/72/72
f 62/72/72 61/67/67 53/68/68
f 62/72/72 53/68/68 54/71/71
f 54/71/71 53/68/68 45/69/69
f 54/71/71 45/69/69 46/70/70
f 10/74/74 18/75/75 9/73/73
f 9/73/73 18/75/75 17/80/80
f 17/80/80 18/75/75 26/76/76
f 17/80/80 26/76/76 25/79/79
f 25/79/79 26/76/76 32/77/77
f 25/79/79 32/77/77 31/78/78
f 34/82/82 28/83/83 33/81/81
f 33/81/81 28/83/83 27/88/88
f 27/88/88 28/83/83 20/84/84
f 27/88/88 20/84/84 19/87/87
f 19/87/87 20/84/84 12/85/85
f 19/87/87 12/85/85 11/86/86
f 47/90/90 55/91/91 48/89/89
f 48/89/89 55/91/91 56/96/96
f 56/96/96 55/91/91 63/92/92
f 56/96/96 63/92/92 64/95/95
f 64/95/95 63/92/92 69/93/93
f 64/95/95 69/93/93 70/94/94
f 74/97/97 68/98/98 65/104/104
f 65/104/104 68/98/98 62/99/99
f 65/104/104 62/99/99 57/103/103
f 57/103/103 62/99/99 54/100/100
f 57/103/103 54/100/100 44/102/102
f 44/102/102 54/100/100 46/101/101
f 4/106/106 13/107/107 10/105/105
f 10/105/105 13/107/107 18/112/112
f 18/112/112 13/107/107 26/111/111
f 26/111/111 13/107/107 21/108/108
f 26/111/111 21/108/108 32/110/110
f 32/110/110 21/108/108 30/109/109
f 36/114/114 22/115/115 34/113/113
f 34/113/113 22/115/115 28/120/120
f 28/120/120 22/115/115 14/116/116
f 28/120/120 14/116/116 20/119/119
f 20/119/119 14/116/116 6/117/117
f 20/119/119 6/117/117 12/118/118
f 50/121/121 48/122/122 58/128/128
f 58/128/128 48/122/122 56/123/123
f 58/128/128 56/123/123 66/127/127
f 66/127/127 56/123/123 64/124/124
f 66/127/127 64/124/124 70/125/125
f 70/125/125 76/126/126 66/127/127
f 42/160/160 49/129/129 52/164/164
f 52/164/164 49/129/129 50/130/130
f 52/164/164 50/130/130 58/131/131
f 52/164/164 58/131/131 60/163/163
f 60/163/163 58/131/131 66/132/132
f 60/163/163 66/132/132 72/162/162
f 72/162/162 66/132/132 76/133/133
f 72/162/162 76/133/133 75/134/134
f 72/162/162 75/134/134 79/161/161
f 79/161/161 75/134/134 78/176/176
f 79/177/177 78/135/135 77/136/136
f 77/136/136 73/137/137 79/178/178
f 79/179/179 73/137/137 71/175/175
f 71/175/175 73/137/137 74/138/138
f 71/175/175 74/138/138 65/139/139
f 71/175/175 65/139/139 59/174/174
f 59/174/174 65/139/139 57/140/140
f 59/174/174 57/140/140 51/173/173
f 51/173/173 57/140/140 44/141/141
f 51/173/173 44/141/141 43/142/142
f 43/142/142 41/143/143 51/173/173
f 51/173/173 41/143/143 37/172/172
f 37/172/172 41/143/143 39/144/144
f 37/172/172 39/144/144 29/145/145
f 37/172/172 29/145/145 23/171/171
f 23/171/171 29/145/145 30/146/146
f 23/171/171 30/146/146 21/147/147
f 23/171/171 21/147/147 15/170/170
f 15/170/170 21/147/147 13/148/148
f 15/170/170 13/148/148 7/169/169
f 7/169/169 13/148/148 4/149/149
f 7/169/169 4/149/149 3/150/150
f 3/150/150 1/151/151 7/169/169
f 7/169/169 1/151/151 8/168/168
f 8/168/168 1/151/151 2/152/152
f 8/168/168 2/152/152 5/153/153
f 5/153/153 6/154/154 8/168/168
f 8/168/168 6/154/154 14/155/155
f 8/168/168 14/155/155 16/167/167
f 16/167/167 14/155/155 22/156/156
f 16/167/167 22/156/156 24/166/166
f 24/166/166 22/156/156 36/157/157
f 24/166/166 36/157/157 35/158/158
f 24/166/166 35/158/158 38/165/165
f 38/165/165 35/158/158 40/159/159
f 38/165/165 40/159/159 42/160/160
f 38/165/165 42/160/160 52/164/164
f 79/180/180 71/181/181 72/194/194
f 72/194/194 71/181/181 60/193/193
f 60/193/193 71/181/181 59/182/182
f 60/193/193 59/182/182 52/192/192
f 52/192/192 59/182/182 51/183/183
f 52/192/192 51/183/183 38/191/191
f 38/191/191 51/183/183 37/184/184
f 38/191/191 37/184/184 24/190/190
f 24/190/190 37/184/184 23/185/185
f 24/190/190 23/185/185 16/189/189
f 16/189/189 23/185/185 15/186/186
f 16/189/189 15/186/186 8/188/188
f 8/188/188 15/186/186 7/187/187

# 79 vertices
# 194 texture params
# 194 normals
# 154 facets

# 1 groups
