# WaveFront *.obj file (generated by Autodesk ATF)

mtllib Nutenstein.mtl

g Volumenkörper1

v 0.000000 3.000000 0.000000
v 0.000000 3.000000 7.000000
v 0.000000 5.000000 0.000000
v 0.000000 5.000000 7.000000
v 3.000000 0.000000 0.000000
v 3.000000 0.000000 7.000000
v 3.500000 5.000000 0.000000
v 3.500000 5.000000 7.000000
v 3.500000 9.000000 0.000000
v 3.500000 9.000000 7.000000
v 5.009006 0.000000 3.287985
v 5.009006 0.000000 3.712015
v 5.009006 9.000000 3.287985
v 5.009006 9.000000 3.712015
v 5.080668 0.000000 2.870055
v 5.080668 0.000000 4.129945
v 5.080668 9.000000 2.870055
v 5.080668 9.000000 4.129945
v 5.221929 0.000000 2.470247
v 5.221929 0.000000 4.529753
v 5.221929 9.000000 2.470247
v 5.221929 9.000000 4.529753
v 5.428726 0.000000 2.100063
v 5.428726 0.000000 4.899937
v 5.428726 9.000000 2.100063
v 5.428726 9.000000 4.899937
v 5.695110 0.000000 1.770153
v 5.695110 0.000000 5.229847
v 5.695110 9.000000 1.770153
v 5.695110 9.000000 5.229847
v 6.013417 0.000000 1.490007
v 6.013417 0.000000 5.509993
v 6.013417 9.000000 1.490007
v 6.013417 9.000000 5.509993
v 6.374491 0.000000 1.267685
v 6.374491 0.000000 5.732315
v 6.374491 9.000000 1.267685
v 6.374491 9.000000 5.732315
v 6.767943 0.000000 1.109583
v 6.767943 0.000000 5.890417
v 6.767943 9.000000 1.109583
v 6.767943 9.000000 5.890417
v 7.182456 0.000000 1.020249
v 7.182456 0.000000 5.979751
v 7.182456 9.000000 1.020249
v 7.182456 9.000000 5.979751
v 7.606103 0.000000 1.002253
v 7.606103 0.000000 5.997747
v 7.606103 9.000000 1.002253
v 7.606103 9.000000 5.997747
v 8.026698 0.000000 1.056112
v 8.026698 0.000000 5.943888
v 8.026698 9.000000 1.056112
v 8.026698 9.000000 5.943888
v 8.432141 0.000000 1.180277
v 8.432141 0.000000 5.819722
v 8.432141 9.000000 1.180277
v 8.432141 9.000000 5.819722
v 8.810768 0.000000 1.371177
v 8.810768 0.000000 5.628823
v 8.810768 9.000000 1.371177
v 8.810768 9.000000 5.628823
v 9.151687 0.000000 1.623319
v 9.151687 0.000000 5.376680
v 9.151687 9.000000 1.623319
v 9.151687 9.000000 5.376680
v 9.445089 0.000000 1.929450
v 9.445089 0.000000 5.070550
v 9.445089 9.000000 1.929450
v 9.445089 9.000000 5.070550
v 9.682536 0.000000 2.280763
v 9.682536 0.000000 4.719237
v 9.682536 9.000000 2.280763
v 9.682536 9.000000 4.719237
v 9.857194 0.000000 2.667150
v 9.857194 0.000000 4.332849
v 9.857194 9.000000 2.667150
v 9.857194 9.000000 4.332849
v 9.964040 0.000000 3.077498
v 9.964040 0.000000 3.922502
v 9.964040 9.000000 3.077498
v 9.964040 9.000000 3.922502
v 10.000000 0.000000 3.500000
v 10.000000 9.000000 3.500000
v 11.500000 5.000000 0.000000
v 11.500000 5.000000 7.000000
v 11.500000 9.000000 0.000000
v 11.500000 9.000000 7.000000
v 12.000000 0.000000 0.000000
v 12.000000 0.000000 7.000000
v 15.000000 3.000000 0.000000
v 15.000000 3.000000 7.000000
v 15.000000 5.000000 0.000000
v 15.000000 5.000000 7.000000
vt 0.000000 0.000000 0.000000
vt 0.424264 0.000000 0.000000
vt 0.424264 0.700000 0.000000
vt 0.000000 0.700000 0.000000
vt 0.700000 0.350000 0.000000
vt 0.696404 0.307750 0.000000
vt 0.685719 0.266715 0.000000
vt 0.668254 0.228076 0.000000
vt 0.644509 0.192945 0.000000
vt 0.615169 0.162332 0.000000
vt 0.581077 0.137118 0.000000
vt 0.543214 0.118028 0.000000
vt 0.502670 0.105611 0.000000
vt 0.460610 0.100225 0.000000
vt 0.418246 0.102025 0.000000
vt 0.376794 0.110958 0.000000
vt 0.337449 0.126769 0.000000
vt 0.301342 0.149001 0.000000
vt 0.269511 0.177015 0.000000
vt 0.242873 0.210006 0.000000
vt 0.222193 0.247025 0.000000
vt 0.208067 0.287005 0.000000
vt 0.200901 0.328799 0.000000
vt 0.200901 0.371201 0.000000
vt 0.208067 0.412995 0.000000
vt 0.222193 0.452975 0.000000
vt 0.242873 0.489994 0.000000
vt 0.269511 0.522985 0.000000
vt 0.301342 0.550999 0.000000
vt 0.337449 0.573231 0.000000
vt 0.376794 0.589042 0.000000
vt 0.418246 0.597975 0.000000
vt 0.460610 0.599775 0.000000
vt 0.502670 0.594389 0.000000
vt 0.543214 0.581972 0.000000
vt 0.581077 0.562882 0.000000
vt 0.615169 0.537668 0.000000
vt 0.644509 0.507055 0.000000
vt 0.668254 0.471924 0.000000
vt 0.685719 0.433285 0.000000
vt 0.696404 0.392250 0.000000
vt 0.000000 0.000000 0.000000
vt 0.900000 0.000000 0.000000
vt 0.900000 0.700000 0.000000
vt 0.000000 0.700000 0.000000
vt 0.000000 0.000000 0.000000
vt 0.424264 0.000000 0.000000
vt 0.424264 0.700000 0.000000
vt 0.000000 0.700000 0.000000
vt 0.000000 0.000000 0.000000
vt 0.200000 0.000000 0.000000
vt 0.200000 0.700000 0.000000
vt 0.000000 0.700000 0.000000
vt 0.000000 0.000000 0.000000
vt 0.350000 0.000000 0.000000
vt 0.350000 0.700000 0.000000
vt 0.000000 0.700000 0.000000
vt 0.000000 0.000000 0.000000
vt 0.400000 0.000000 0.000000
vt 0.400000 0.700000 0.000000
vt 0.000000 0.700000 0.000000
vt 0.150000 0.350000 0.000000
vt 0.153596 0.392250 0.000000
vt 0.164281 0.433285 0.000000
vt 0.181746 0.471924 0.000000
vt 0.205491 0.507055 0.000000
vt 0.234831 0.537668 0.000000
vt 0.268923 0.562882 0.000000
vt 0.306786 0.581972 0.000000
vt 0.347330 0.594389 0.000000
vt 0.389390 0.599775 0.000000
vt 0.431754 0.597975 0.000000
vt 0.473206 0.589042 0.000000
vt 0.512551 0.573231 0.000000
vt 0.548658 0.550999 0.000000
vt 0.580489 0.522985 0.000000
vt 0.607127 0.489994 0.000000
vt 0.627807 0.452975 0.000000
vt 0.641933 0.412995 0.000000
vt 0.649099 0.371201 0.000000
vt 0.649099 0.328799 0.000000
vt 0.641933 0.287005 0.000000
vt 0.627807 0.247025 0.000000
vt 0.607127 0.210006 0.000000
vt 0.580489 0.177015 0.000000
vt 0.548658 0.149001 0.000000
vt 0.512551 0.126769 0.000000
vt 0.473206 0.110958 0.000000
vt 0.431754 0.102025 0.000000
vt 0.389390 0.100225 0.000000
vt 0.347330 0.105611 0.000000
vt 0.306786 0.118028 0.000000
vt 0.268923 0.137118 0.000000
vt 0.234831 0.162332 0.000000
vt 0.205491 0.192945 0.000000
vt 0.181746 0.228076 0.000000
vt 0.164281 0.266715 0.000000
vt 0.153596 0.307750 0.000000
vt 0.000000 0.000000 0.000000
vt 0.800000 0.000000 0.000000
vt 0.800000 0.700000 0.000000
vt 0.000000 0.700000 0.000000
vt 0.000000 0.000000 0.000000
vt 0.400000 0.000000 0.000000
vt 0.400000 0.700000 0.000000
vt 0.000000 0.700000 0.000000
vt 0.000000 0.000000 0.000000
vt 0.350000 0.000000 0.000000
vt 0.350000 0.700000 0.000000
vt 0.000000 0.700000 0.000000
vt 0.000000 0.000000 0.000000
vt 0.200000 0.000000 0.000000
vt 0.200000 0.700000 0.000000
vt 0.000000 0.700000 0.000000
vt 0.750000 -0.130992 0.000000
vt 0.750000 0.069008 0.000000
vt 0.400000 0.069008 0.000000
vt 0.400000 0.469008 0.000000
vt -0.400000 0.469008 0.000000
vt -0.400000 0.069008 0.000000
vt -0.750000 0.069008 0.000000
vt -0.750000 -0.130992 0.000000
vt -0.450000 -0.430992 0.000000
vt 0.450000 -0.430992 0.000000
vt -0.750000 0.069008 0.000000
vt -0.750000 -0.130992 0.000000
vt -0.450000 -0.430992 0.000000
vt 0.450000 -0.430992 0.000000
vt 0.750000 -0.130992 0.000000
vt 0.750000 0.069008 0.000000
vt 0.400000 0.069008 0.000000
vt 0.400000 0.469008 0.000000
vt -0.400000 0.469008 0.000000
vt -0.400000 0.069008 0.000000
vt 0.900000 -0.785398 0.000000
vt 0.900000 -0.742944 0.000000
vt 0.900000 -0.700490 0.000000
vt 0.900000 -0.658036 0.000000
vt 0.900000 -0.615582 0.000000
vt 0.900000 -0.573128 0.000000
vt 0.900000 -0.530674 0.000000
vt 0.900000 -0.488220 0.000000
vt 0.900000 -0.445767 0.000000
vt 0.900000 -0.403313 0.000000
vt 0.900000 -0.360859 0.000000
vt 0.900000 -0.318405 0.000000
vt 0.900000 -0.275951 0.000000
vt 0.900000 -0.233497 0.000000
vt 0.900000 -0.191043 0.000000
vt 0.900000 -0.148589 0.000000
vt 0.900000 -0.106135 0.000000
vt 0.900000 -0.063681 0.000000
vt 0.900000 -0.021227 0.000000
vt 0.900000 0.021227 0.000000
vt 0.900000 0.063681 0.000000
vt 0.900000 0.106135 0.000000
vt 0.900000 0.148589 0.000000
vt 0.900000 0.191043 0.000000
vt 0.900000 0.233497 0.000000
vt 0.900000 0.275951 0.000000
vt 0.900000 0.318405 0.000000
vt 0.900000 0.360859 0.000000
vt 0.900000 0.403313 0.000000
vt 0.900000 0.445767 0.000000
vt 0.900000 0.488220 0.000000
vt 0.900000 0.530674 0.000000
vt 0.900000 0.573128 0.000000
vt 0.900000 0.615582 0.000000
vt 0.900000 0.658036 0.000000
vt 0.900000 0.700490 0.000000
vt 0.900000 0.742944 0.000000
vt 0.000000 0.785398 0.000000
vt 0.000000 0.742944 0.000000
vt 0.000000 0.700490 0.000000
vt 0.000000 0.658036 0.000000
vt 0.000000 0.615582 0.000000
vt 0.000000 0.573128 0.000000
vt 0.000000 0.530674 0.000000
vt 0.000000 0.488220 0.000000
vt 0.000000 0.445767 0.000000
vt 0.000000 0.403313 0.000000
vt 0.000000 0.360859 0.000000
vt 0.000000 0.318405 0.000000
vt 0.000000 0.275951 0.000000
vt 0.000000 0.233497 0.000000
vt 0.000000 0.191043 0.000000
vt 0.000000 0.148589 0.000000
vt 0.000000 0.106135 0.000000
vt 0.000000 0.063681 0.000000
vt 0.000000 0.021227 0.000000
vt 0.000000 -0.021227 0.000000
vt 0.000000 -0.063681 0.000000
vt 0.000000 -0.106135 0.000000
vt 0.000000 -0.148589 0.000000
vt 0.000000 -0.191043 0.000000
vt 0.000000 -0.233497 0.000000
vt 0.000000 -0.275951 0.000000
vt 0.000000 -0.318405 0.000000
vt 0.000000 -0.360859 0.000000
vt 0.000000 -0.403313 0.000000
vt 0.000000 -0.445767 0.000000
vt 0.000000 -0.488220 0.000000
vt 0.000000 -0.530674 0.000000
vt 0.000000 -0.573128 0.000000
vt 0.000000 -0.615582 0.000000
vt 0.000000 -0.658036 0.000000
vt 0.000000 -0.700490 0.000000
vt 0.000000 -0.742944 0.000000
vt 0.000000 -0.785398 0.000000
vt 0.900000 0.785398 0.000000
vn 0.070711 -0.070711 0.000000
vn 0.070711 -0.070711 0.000000
vn 0.070711 -0.070711 0.000000
vn 0.070711 -0.070711 0.000000
vn 0.000000 -0.100000 0.000000
vn 0.000000 -0.100000 0.000000
vn 0.000000 -0.100000 0.000000
vn 0.000000 -0.100000 0.000000
vn 0.000000 -0.100000 0.000000
vn 0.000000 -0.100000 0.000000
vn 0.000000 -0.100000 0.000000
vn 0.000000 -0.100000 0.000000
vn 0.000000 -0.100000 0.000000
vn 0.000000 -0.100000 0.000000
vn 0.000000 -0.100000 0.000000
vn 0.000000 -0.100000 0.000000
vn 0.000000 -0.100000 0.000000
vn 0.000000 -0.100000 0.000000
vn 0.000000 -0.100000 0.000000
vn 0.000000 -0.100000 0.000000
vn 0.000000 -0.100000 0.000000
vn 0.000000 -0.100000 0.000000
vn 0.000000 -0.100000 0.000000
vn 0.000000 -0.100000 0.000000
vn 0.000000 -0.100000 0.000000
vn 0.000000 -0.100000 0.000000
vn 0.000000 -0.100000 0.000000
vn 0.000000 -0.100000 0.000000
vn 0.000000 -0.100000 0.000000
vn 0.000000 -0.100000 0.000000
vn 0.000000 -0.100000 0.000000
vn 0.000000 -0.100000 0.000000
vn 0.000000 -0.100000 0.000000
vn 0.000000 -0.100000 0.000000
vn 0.000000 -0.100000 0.000000
vn 0.000000 -0.100000 0.000000
vn 0.000000 -0.100000 0.000000
vn 0.000000 -0.100000 0.000000
vn 0.000000 -0.100000 0.000000
vn 0.000000 -0.100000 0.000000
vn 0.000000 -0.100000 0.000000
vn 0.000000 -0.100000 0.000000
vn 0.000000 -0.100000 0.000000
vn 0.000000 -0.100000 0.000000
vn 0.000000 -0.100000 0.000000
vn -0.070711 -0.070711 0.000000
vn -0.070711 -0.070711 0.000000
vn -0.070711 -0.070711 0.000000
vn -0.070711 -0.070711 0.000000
vn -0.100000 0.000000 0.000000
vn -0.100000 0.000000 0.000000
vn -0.100000 0.000000 0.000000
vn -0.100000 0.000000 0.000000
vn 0.000000 0.100000 0.000000
vn 0.000000 0.100000 0.000000
vn 0.000000 0.100000 0.000000
vn 0.000000 0.100000 0.000000
vn -0.100000 0.000000 0.000000
vn -0.100000 0.000000 0.000000
vn -0.100000 0.000000 0.000000
vn -0.100000 0.000000 0.000000
vn 0.000000 0.100000 0.000000
vn 0.000000 0.100000 0.000000
vn 0.000000 0.100000 0.000000
vn 0.000000 0.100000 0.000000
vn 0.000000 0.100000 0.000000
vn 0.000000 0.100000 0.000000
vn 0.000000 0.100000 0.000000
vn 0.000000 0.100000 0.000000
vn 0.000000 0.100000 0.000000
vn 0.000000 0.100000 0.000000
vn 0.000000 0.100000 0.000000
vn 0.000000 0.100000 0.000000
vn 0.000000 0.100000 0.000000
vn 0.000000 0.100000 0.000000
vn 0.000000 0.100000 0.000000
vn 0.000000 0.100000 0.000000
vn 0.000000 0.100000 0.000000
vn 0.000000 0.100000 0.000000
vn 0.000000 0.100000 0.000000
vn 0.000000 0.100000 0.000000
vn 0.000000 0.100000 0.000000
vn 0.000000 0.100000 0.000000
vn 0.000000 0.100000 0.000000
vn 0.000000 0.100000 0.000000
vn 0.000000 0.100000 0.000000
vn 0.000000 0.100000 0.000000
vn 0.000000 0.100000 0.000000
vn 0.000000 0.100000 0.000000
vn 0.000000 0.100000 0.000000
vn 0.000000 0.100000 0.000000
vn 0.000000 0.100000 0.000000
vn 0.000000 0.100000 0.000000
vn 0.000000 0.100000 0.000000
vn 0.000000 0.100000 0.000000
vn 0.000000 0.100000 0.000000
vn 0.000000 0.100000 0.000000
vn 0.000000 0.100000 0.000000
vn 0.000000 0.100000 0.000000
vn 0.000000 0.100000 0.000000
vn 0.000000 0.100000 0.000000
vn 0.000000 0.100000 0.000000
vn 0.100000 0.000000 0.000000
vn 0.100000 0.000000 0.000000
vn 0.100000 0.000000 0.000000
vn 0.100000 0.000000 0.000000
vn 0.000000 0.100000 0.000000
vn 0.000000 0.100000 0.000000
vn 0.000000 0.100000 0.000000
vn 0.000000 0.100000 0.000000
vn 0.100000 0.000000 0.000000
vn 0.100000 0.000000 0.000000
vn 0.100000 0.000000 0.000000
vn 0.100000 0.000000 0.000000
vn 0.000000 0.000000 0.100000
vn 0.000000 0.000000 0.100000
vn 0.000000 0.000000 0.100000
vn 0.000000 0.000000 0.100000
vn 0.000000 0.000000 0.100000
vn 0.000000 0.000000 0.100000
vn 0.000000 0.000000 0.100000
vn 0.000000 0.000000 0.100000
vn 0.000000 0.000000 0.100000
vn 0.000000 0.000000 0.100000
vn 0.000000 0.000000 -0.100000
vn 0.000000 0.000000 -0.100000
vn 0.000000 0.000000 -0.100000
vn 0.000000 0.000000 -0.100000
vn 0.000000 0.000000 -0.100000
vn 0.000000 0.000000 -0.100000
vn 0.000000 0.000000 -0.100000
vn 0.000000 0.000000 -0.100000
vn 0.000000 0.000000 -0.100000
vn 0.000000 0.000000 -0.100000
vn -0.100000 0.000000 0.000000
vn -0.098562 0.000000 -0.016900
vn -0.094288 0.000000 -0.033314
vn -0.087301 0.000000 -0.048769
vn -0.077804 0.000000 -0.062822
vn -0.066067 0.000000 -0.075067
vn -0.052431 0.000000 -0.085153
vn -0.037286 0.000000 -0.092789
vn -0.021068 0.000000 -0.097756
vn -0.004244 0.000000 -0.099910
vn 0.012702 0.000000 -0.099190
vn 0.029282 0.000000 -0.095617
vn 0.045020 0.000000 -0.089293
vn 0.059463 0.000000 -0.080400
vn 0.072196 0.000000 -0.069194
vn 0.082851 0.000000 -0.055997
vn 0.091123 0.000000 -0.041190
vn 0.096773 0.000000 -0.025198
vn 0.099640 0.000000 -0.008481
vn 0.099640 0.000000 0.008481
vn 0.096773 0.000000 0.025198
vn 0.091123 0.000000 0.041190
vn 0.082851 0.000000 0.055997
vn 0.072196 0.000000 0.069194
vn 0.059463 0.000000 0.080400
vn 0.045020 0.000000 0.089293
vn 0.029282 0.000000 0.095617
vn 0.012702 0.000000 0.099190
vn -0.004244 0.000000 0.099910
vn -0.021068 0.000000 0.097756
vn -0.037286 0.000000 0.092789
vn -0.052431 0.000000 0.085153
vn -0.066067 0.000000 0.075067
vn -0.077804 0.000000 0.062822
vn -0.087301 0.000000 0.048769
vn -0.094288 0.000000 0.033314
vn -0.098562 0.000000 0.016900
vn -0.100000 0.000000 0.000000
vn -0.098562 0.000000 0.016900
vn -0.094288 0.000000 0.033314
vn -0.087301 0.000000 0.048769
vn -0.077804 0.000000 0.062822
vn -0.066067 0.000000 0.075067
vn -0.052431 0.000000 0.085153
vn -0.037286 0.000000 0.092789
vn -0.021068 0.000000 0.097756
vn -0.004244 0.000000 0.099910
vn 0.012702 0.000000 0.099190
vn 0.029282 0.000000 0.095617
vn 0.045020 0.000000 0.089293
vn 0.059463 0.000000 0.080400
vn 0.072196 0.000000 0.069194
vn 0.082851 0.000000 0.055997
vn 0.091123 0.000000 0.041190
vn 0.096773 0.000000 0.025198
vn 0.099640 0.000000 0.008481
vn 0.099640 0.000000 -0.008481
vn 0.096773 0.000000 -0.025198
vn 0.091123 0.000000 -0.041190
vn 0.082851 0.000000 -0.055997
vn 0.072196 0.000000 -0.069194
vn 0.059463 0.000000 -0.080400
vn 0.045020 0.000000 -0.089293
vn 0.029282 0.000000 -0.095617
vn 0.012702 0.000000 -0.099190
vn -0.004244 0.000000 -0.099910
vn -0.021068 0.000000 -0.097756
vn -0.037286 0.000000 -0.092789
vn -0.052431 0.000000 -0.085153
vn -0.066067 0.000000 -0.075067
vn -0.077804 0.000000 -0.062822
vn -0.087301 0.000000 -0.048769
vn -0.094288 0.000000 -0.033314
vn -0.098562 0.000000 -0.016900
vn -0.100000 0.000000 0.000000
vn -0.100000 0.000000 0.000000
usemtl 191,191,191
f 89/1/1 91/2/2 90/4/4
f 90/4/4 91/2/2 92/3/3
f 79/6/6 89/43/43 83/5/5
f 83/5/5 89/43/43 90/44/44
f 83/5/5 90/44/44 80/41/41
f 80/41/41 90/44/44 76/40/40
f 76/40/40 90/44/44 72/39/39
f 72/39/39 90/44/44 68/38/38
f 68/38/38 90/44/44 64/37/37
f 64/37/37 90/44/44 60/36/36
f 60/36/36 90/44/44 56/35/35
f 56/35/35 90/44/44 52/34/34
f 52/34/34 90/44/44 48/33/33
f 48/33/33 90/44/44 6/45/45
f 48/33/33 6/45/45 44/32/32
f 44/32/32 6/45/45 40/31/31
f 40/31/31 6/45/45 36/30/30
f 36/30/30 6/45/45 32/29/29
f 32/29/29 6/45/45 28/28/28
f 28/28/28 6/45/45 24/27/27
f 24/27/27 6/45/45 20/26/26
f 20/26/26 6/45/45 16/25/25
f 16/25/25 6/45/45 12/24/24
f 12/24/24 6/45/45 5/42/42
f 12/24/24 5/42/42 11/23/23
f 11/23/23 5/42/42 15/22/22
f 15/22/22 5/42/42 19/21/21
f 19/21/21 5/42/42 23/20/20
f 23/20/20 5/42/42 27/19/19
f 27/19/19 5/42/42 31/18/18
f 31/18/18 5/42/42 35/17/17
f 35/17/17 5/42/42 39/16/16
f 39/16/16 5/42/42 43/15/15
f 43/15/15 5/42/42 47/14/14
f 47/14/14 5/42/42 89/43/43
f 47/14/14 89/43/43 51/13/13
f 51/13/13 89/43/43 55/12/12
f 55/12/12 89/43/43 59/11/11
f 59/11/11 89/43/43 63/10/10
f 63/10/10 89/43/43 67/9/9
f 67/9/9 89/43/43 71/8/8
f 71/8/8 89/43/43 75/7/7
f 75/7/7 89/43/43 79/6/6
f 1/46/46 5/47/47 2/49/49
f 2/49/49 5/47/47 6/48/48
f 3/50/50 1/51/51 4/53/53
f 4/53/53 1/51/51 2/52/52
f 7/54/54 3/55/55 8/57/57
f 8/57/57 3/55/55 4/56/56
f 9/58/58 7/59/59 10/61/61
f 10/61/61 7/59/59 8/60/60
f 82/63/63 88/102/102 84/62/62
f 84/62/62 88/102/102 87/99/99
f 84/62/62 87/99/99 81/98/98
f 81/98/98 87/99/99 77/97/97
f 77/97/97 87/99/99 73/96/96
f 73/96/96 87/99/99 69/95/95
f 69/95/95 87/99/99 65/94/94
f 65/94/94 87/99/99 61/93/93
f 61/93/93 87/99/99 57/92/92
f 57/92/92 87/99/99 53/91/91
f 53/91/91 87/99/99 49/90/90
f 49/90/90 87/99/99 9/100/100
f 49/90/90 9/100/100 45/89/89
f 45/89/89 9/100/100 41/88/88
f 41/88/88 9/100/100 37/87/87
f 37/87/87 9/100/100 33/86/86
f 33/86/86 9/100/100 29/85/85
f 29/85/85 9/100/100 25/84/84
f 25/84/84 9/100/100 21/83/83
f 21/83/83 9/100/100 17/82/82
f 17/82/82 9/100/100 13/81/81
f 13/81/81 9/100/100 14/80/80
f 14/80/80 9/100/100 10/101/101
f 14/80/80 10/101/101 18/79/79
f 18/79/79 10/101/101 22/78/78
f 22/78/78 10/101/101 26/77/77
f 26/77/77 10/101/101 30/76/76
f 30/76/76 10/101/101 34/75/75
f 34/75/75 10/101/101 38/74/74
f 38/74/74 10/101/101 42/73/73
f 42/73/73 10/101/101 46/72/72
f 46/72/72 10/101/101 50/71/71
f 50/71/71 10/101/101 88/102/102
f 50/71/71 88/102/102 54/70/70
f 54/70/70 88/102/102 58/69/69
f 58/69/69 88/102/102 62/68/68
f 62/68/68 88/102/102 66/67/67
f 66/67/67 88/102/102 70/66/66
f 70/66/66 88/102/102 74/65/65
f 74/65/65 88/102/102 78/64/64
f 78/64/64 88/102/102 82/63/63
f 85/103/103 87/104/104 86/106/106
f 86/106/106 87/104/104 88/105/105
f 93/107/107 85/108/108 94/110/110
f 94/110/110 85/108/108 86/109/109
f 91/111/111 93/112/112 92/114/114
f 92/114/114 93/112/112 94/113/113
f 94/116/116 86/117/117 92/115/115
f 92/115/115 86/117/117 90/124/124
f 90/124/124 86/117/117 8/120/120
f 90/124/124 8/120/120 6/123/123
f 6/123/123 8/120/120 2/122/122
f 2/122/122 8/120/120 4/121/121
f 88/118/118 10/119/119 86/117/117
f 86/117/117 10/119/119 8/120/120
f 93/125/125 91/126/126 85/134/134
f 85/134/134 91/126/126 89/127/127
f 85/134/134 89/127/127 5/128/128
f 85/134/134 5/128/128 7/131/131
f 7/131/131 5/128/128 1/129/129
f 7/131/131 1/129/129 3/130/130
f 9/132/132 87/133/133 7/131/131
f 7/131/131 87/133/133 85/134/134
f 80/136/136 82/208/208 83/135/135
f 83/135/135 82/208/208 84/209/209
f 83/210/210 84/172/172 79/171/171
f 79/171/171 84/172/172 81/173/173
f 79/171/171 81/173/173 75/170/170
f 75/170/170 81/173/173 77/174/174
f 75/170/170 77/174/174 71/169/169
f 71/169/169 77/174/174 73/175/175
f 71/169/169 73/175/175 67/168/168
f 67/168/168 73/175/175 69/176/176
f 67/168/168 69/176/176 63/167/167
f 63/167/167 69/176/176 65/177/177
f 63/167/167 65/177/177 59/166/166
f 59/166/166 65/177/177 61/178/178
f 59/166/166 61/178/178 55/165/165
f 55/165/165 61/178/178 57/179/179
f 55/165/165 57/179/179 51/164/164
f 51/164/164 57/179/179 53/180/180
f 51/164/164 53/180/180 47/163/163
f 47/163/163 53/180/180 49/181/181
f 47/163/163 49/181/181 43/162/162
f 43/162/162 49/181/181 45/182/182
f 43/162/162 45/182/182 39/161/161
f 39/161/161 45/182/182 41/183/183
f 39/161/161 41/183/183 35/160/160
f 35/160/160 41/183/183 37/184/184
f 35/160/160 37/184/184 31/159/159
f 31/159/159 37/184/184 33/185/185
f 31/159/159 33/185/185 27/158/158
f 27/158/158 33/185/185 29/186/186
f 27/158/158 29/186/186 23/157/157
f 23/157/157 29/186/186 25/187/187
f 23/157/157 25/187/187 19/156/156
f 19/156/156 25/187/187 21/188/188
f 19/156/156 21/188/188 15/155/155
f 15/155/155 21/188/188 17/189/189
f 15/155/155 17/189/189 11/154/154
f 11/154/154 17/189/189 13/190/190
f 11/154/154 13/190/190 12/153/153
f 12/153/153 13/190/190 14/191/191
f 12/153/153 14/191/191 16/152/152
f 16/152/152 14/191/191 18/192/192
f 16/152/152 18/192/192 20/151/151
f 20/151/151 18/192/192 22/193/193
f 20/151/151 22/193/193 24/150/150
f 24/150/150 22/193/193 26/194/194
f 24/150/150 26/194/194 28/149/149
f 28/149/149 26/194/194 30/195/195
f 28/149/149 30/195/195 32/148/148
f 32/148/148 30/195/195 34/196/196
f 32/148/148 34/196/196 36/147/147
f 36/147/147 34/196/196 38/197/197
f 36/147/147 38/197/197 40/146/146
f 40/146/146 38/197/197 42/198/198
f 40/146/146 42/198/198 44/145/145
f 44/145/145 42/198/198 46/199/199
f 44/145/145 46/199/199 48/144/144
f 48/144/144 46/199/199 50/200/200
f 48/144/144 50/200/200 52/143/143
f 52/143/143 50/200/200 54/201/201
f 52/143/143 54/201/201 56/142/142
f 56/142/142 54/201/201 58/202/202
f 56/142/142 58/202/202 60/141/141
f 60/141/141 58/202/202 62/203/203
f 60/141/141 62/203/203 64/140/140
f 64/140/140 62/203/203 66/204/204
f 64/140/140 66/204/204 68/139/139
f 68/139/139 66/204/204 70/205/205
f 68/139/139 70/205/205 72/138/138
f 72/138/138 70/205/205 74/206/206
f 72/138/138 74/206/206 76/137/137
f 76/137/137 74/206/206 78/207/207
f 76/137/137 78/207/207 80/136/136
f 80/136/136 78/207/207 82/208/208

# 94 vertices
# 210 texture params
# 210 normals
# 188 facets

# 1 groups
